<svg width="181" height="28" viewBox="0 0 181 28" fill="none" xmlns="http://www.w3.org/2000/svg">
<path d="M0.0733643 14.0741C0.0733643 10.3489 1.32212 7.16411 3.81962 4.51956C6.34551 1.87501 9.36805 0.552734 12.8873 0.552734H28.9271L27.0745 7.33472H12.8873C11.2128 7.33472 9.77957 8.00297 8.58758 9.33946C7.42397 10.6475 6.84217 12.2257 6.84217 14.0741C6.84217 15.9224 7.42397 17.5006 8.58758 18.8087C9.77957 20.1167 11.2128 20.7707 12.8873 20.7707H24.0787L22.338 27.5527H12.8873C9.36805 27.5527 6.34551 26.2447 3.81962 23.6286C1.32212 20.984 0.0733643 17.7992 0.0733643 14.0741Z" fill="url(#paint0_linear_270_27346)"/>
<path d="M52.7294 4.51956C50.2292 1.87501 47.2033 0.552734 43.6518 0.552734H30.8238L24.0479 27.5527H32.2094L36.2583 10.9434L36.2854 10.95L37.1773 7.33472H43.6518C45.3281 7.33472 46.7629 8.00297 47.9562 9.33946C49.1495 10.6475 49.7462 12.2257 49.7462 14.0741C49.7462 15.9224 49.1495 17.5006 47.9562 18.8087C46.7629 20.1167 45.3281 20.7707 43.6518 20.7707H39.0271L37.3739 27.5527H43.6518C47.2033 27.5527 50.2292 26.2447 52.7294 23.6286C55.2297 20.984 56.4798 17.7992 56.4798 14.0741C56.4798 10.3489 55.2297 7.16411 52.7294 4.51956Z" fill="url(#paint1_linear_270_27346)"/>
<path d="M71.6737 8.84344L73.2232 10.6688C72.1902 11.5896 70.899 12.0419 69.3495 12.0419C67.7194 12.0419 66.3152 11.4927 65.1693 10.4104C64.0233 9.3119 63.4423 7.92267 63.4423 6.22652C63.4423 4.53036 64.0233 3.14113 65.1693 2.05883C66.3152 0.960363 67.7194 0.411133 69.3495 0.411133C70.8506 0.411133 72.1256 0.863441 73.1586 1.7519L71.593 3.51267C70.9474 3.07652 70.2534 2.85036 69.5109 2.85036C68.5264 2.85036 67.7194 3.17344 67.0899 3.80344C66.4605 4.43344 66.1538 5.24113 66.1538 6.22652C66.1538 7.2119 66.4605 8.01959 67.0899 8.64959C67.7194 9.27959 68.5264 9.60267 69.5109 9.60267C70.318 9.60267 71.0443 9.34421 71.6737 8.84344Z" fill="url(#paint2_linear_270_27346)"/>
<path d="M81.6249 5.01498V0.572671H84.2234V11.8804H81.6249V7.40575H77.3477V11.8804H74.7492V0.572671H77.3477V5.01498H81.6249Z" fill="url(#paint3_linear_270_27346)"/>
<path d="M97.4911 11.8804H94.7312L93.9887 10.0065H89.0176L88.2751 11.8804H85.5151L90.1958 0.572671H92.8105L97.4911 11.8804ZM91.5031 3.70652L89.8568 7.87421H93.1494L91.5031 3.70652Z" fill="url(#paint4_linear_270_27346)"/>
<path d="M102.595 0.411133C104.273 0.411133 105.564 1.18652 106.452 2.73729L104.548 3.88421C103.886 3.04421 103.402 2.70498 102.611 2.70498C101.836 2.70498 101.352 3.09267 101.352 3.72267C101.352 4.22344 101.691 4.53036 102.482 4.80498L103.24 5.07959C105.807 5.98421 106.775 7.03421 106.775 8.60113C106.775 9.68344 106.355 10.5396 105.5 11.1373C104.661 11.735 103.708 12.0419 102.643 12.0419C101.626 12.0419 100.722 11.7834 99.9477 11.2665C99.1891 10.7334 98.6726 10.0711 98.3982 9.24729L100.383 8.18113C100.948 9.19883 101.691 9.6996 102.643 9.6996C103.595 9.6996 104.08 9.3119 104.08 8.55267C104.08 7.92267 103.708 7.64806 102.482 7.19575L101.852 6.96959C100.868 6.61421 100.109 6.19421 99.5765 5.70959C99.0438 5.20883 98.7695 4.53036 98.7695 3.6419C98.7695 2.65652 99.1407 1.88113 99.867 1.29959C100.609 0.701902 101.513 0.411133 102.595 0.411133Z" fill="url(#paint5_linear_270_27346)"/>
<path d="M112.099 0.411133C113.778 0.411133 115.069 1.18652 115.957 2.73729L114.052 3.88421C113.39 3.04421 112.906 2.70498 112.115 2.70498C111.34 2.70498 110.856 3.09267 110.856 3.72267C110.856 4.22344 111.195 4.53036 111.986 4.80498L112.745 5.07959C115.311 5.98421 116.279 7.03421 116.279 8.60113C116.279 9.68344 115.86 10.5396 115.004 11.1373C114.165 11.735 113.213 12.0419 112.147 12.0419C111.131 12.0419 110.227 11.7834 109.452 11.2665C108.694 10.7334 108.177 10.0711 107.903 9.24729L109.888 8.18113C110.453 9.19883 111.195 9.6996 112.147 9.6996C113.1 9.6996 113.584 9.3119 113.584 8.55267C113.584 7.92267 113.213 7.64806 111.986 7.19575L111.357 6.96959C110.372 6.61421 109.613 6.19421 109.081 5.70959C108.548 5.20883 108.274 4.53036 108.274 3.6419C108.274 2.65652 108.645 1.88113 109.371 1.29959C110.114 0.701902 111.018 0.411133 112.099 0.411133Z" fill="url(#paint6_linear_270_27346)"/>
<path d="M120.409 7.35729V9.4896H125.041V11.8804H117.811V0.572671H124.896V2.96344H120.409V5.01498H123.766V7.35729H120.409Z" fill="url(#paint7_linear_270_27346)"/>
<path d="M132.994 7.68036V0.572671H135.593V7.66421C135.593 9.02113 135.173 10.0873 134.334 10.8788C133.494 11.6542 132.445 12.0419 131.17 12.0419C129.895 12.0419 128.846 11.6542 127.991 10.8788C127.151 10.0873 126.732 9.02113 126.732 7.66421V0.572671H129.33V7.68036C129.33 9.08575 130.186 9.60267 131.17 9.60267C132.155 9.60267 132.994 9.08575 132.994 7.68036Z" fill="url(#paint8_linear_270_27346)"/>
<path d="M146.567 11.8804H143.823L141.515 8.18113H140.127V11.8804H137.529V0.572671H141.547C142.823 0.572671 143.839 0.928056 144.598 1.63883C145.373 2.34959 145.76 3.28652 145.76 4.46575C145.76 5.9519 145.066 7.09883 143.856 7.68036L146.567 11.8804ZM141.386 2.96344H140.127V5.96806H141.386C142.564 5.96806 143.161 5.46729 143.161 4.46575C143.161 3.46421 142.564 2.96344 141.386 2.96344Z" fill="url(#paint9_linear_270_27346)"/>
<path d="M151.819 0.411133C153.497 0.411133 154.789 1.18652 155.676 2.73729L153.772 3.88421C153.11 3.04421 152.626 2.70498 151.835 2.70498C151.06 2.70498 150.576 3.09267 150.576 3.72267C150.576 4.22344 150.915 4.53036 151.706 4.80498L152.465 5.07959C155.031 5.98421 155.999 7.03421 155.999 8.60113C155.999 9.68344 155.58 10.5396 154.724 11.1373C153.885 11.735 152.933 12.0419 151.867 12.0419C150.851 12.0419 149.947 11.7834 149.172 11.2665C148.413 10.7334 147.897 10.0711 147.622 9.24729L149.608 8.18113C150.173 9.19883 150.915 9.6996 151.867 9.6996C152.82 9.6996 153.304 9.3119 153.304 8.55267C153.304 7.92267 152.933 7.64806 151.706 7.19575L151.076 6.96959C150.092 6.61421 149.333 6.19421 148.801 5.70959C148.268 5.20883 147.994 4.53036 147.994 3.6419C147.994 2.65652 148.365 1.88113 149.091 1.29959C149.834 0.701902 150.738 0.411133 151.819 0.411133Z" fill="url(#paint10_linear_270_27346)"/>
<path d="M161.424 0.572671H165.62C167.218 0.572671 168.557 1.1219 169.671 2.22036C170.785 3.30267 171.35 4.61113 171.35 6.14575C171.35 7.74498 170.801 9.1019 169.687 10.2165C168.574 11.3311 167.218 11.8804 165.62 11.8804H161.424V0.572671ZM164.022 9.42498H165.604C166.588 9.42498 167.347 9.11806 167.88 8.50421C168.412 7.87421 168.687 7.09883 168.687 6.14575C168.687 5.27344 168.412 4.53036 167.88 3.93267C167.347 3.33498 166.588 3.02806 165.604 3.02806H164.022V9.42498Z" fill="url(#paint11_linear_270_27346)"/>
<path d="M175.56 7.35729V9.4896H180.192V11.8804H172.961V0.572671H180.047V2.96344H175.56V5.01498H178.917V7.35729H175.56Z" fill="url(#paint12_linear_270_27346)"/>
<path d="M63.9314 13.8976H68.9072C70.8018 13.8976 72.3902 14.5488 73.7107 15.8513C75.0312 17.1346 75.701 18.6861 75.701 20.5057C75.701 22.4019 75.0503 24.0108 73.7298 25.3324C72.4093 26.6541 70.8018 27.3053 68.9072 27.3053H63.9314V13.8976ZM67.0125 24.3939H68.888C70.0554 24.3939 70.9549 24.03 71.5864 23.3021C72.218 22.5551 72.5433 21.6357 72.5433 20.5057C72.5433 19.4714 72.218 18.5903 71.5864 17.8816C70.9549 17.1729 70.0554 16.809 68.888 16.809H67.0125V24.3939Z" fill="url(#paint13_linear_270_27346)"/>
<path d="M80.6929 21.9422V24.4705H86.1854V27.3053H77.6118V13.8976H86.0132V16.7324H80.6929V19.1649H84.6735V21.9422H80.6929Z" fill="url(#paint14_linear_270_27346)"/>
<path d="M87.807 13.8976H97.395V16.7324H94.1416V27.3053H91.0604V16.7324H87.807V13.8976Z" fill="url(#paint15_linear_270_27346)"/>
<path d="M98.927 13.8976H108.515V16.7324H105.262V27.3053H102.18V16.7324H98.927V13.8976Z" fill="url(#paint16_linear_270_27346)"/>
<path d="M113.511 21.9422V24.4705H119.003V27.3053H110.43V13.8976H118.831V16.7324H113.511V19.1649H117.492V21.9422H113.511Z" fill="url(#paint17_linear_270_27346)"/>
<path d="M125.505 13.7061C127.495 13.7061 129.026 14.6254 130.079 16.4642L127.821 17.8241C127.036 16.8281 126.462 16.4259 125.524 16.4259C124.606 16.4259 124.031 16.8856 124.031 17.6326C124.031 18.2264 124.433 18.5903 125.371 18.9159L126.271 19.2415C129.313 20.3141 130.462 21.5591 130.462 23.4171C130.462 24.7004 129.964 25.7155 128.95 26.4242C127.955 27.1329 126.826 27.4968 125.562 27.4968C124.357 27.4968 123.285 27.1904 122.367 26.5774C121.467 25.9454 120.855 25.1601 120.529 24.1832L122.883 22.9191C123.553 24.1257 124.433 24.7195 125.562 24.7195C126.692 24.7195 127.266 24.2598 127.266 23.3596C127.266 22.6126 126.826 22.287 125.371 21.7507L124.625 21.4825C123.457 21.0611 122.558 20.5631 121.926 19.9885C121.295 19.3947 120.969 18.5903 120.969 17.5368C120.969 16.3684 121.41 15.4491 122.271 14.7595C123.151 14.0508 124.223 13.7061 125.505 13.7061Z" fill="url(#paint18_linear_270_27346)"/>
<path d="M136.374 24.0684C137.312 24.0684 138.097 24.7962 138.097 25.7922C138.097 26.7882 137.312 27.4969 136.374 27.4969C135.437 27.4969 134.671 26.7882 134.671 25.7922C134.671 24.7962 135.456 24.0684 136.374 24.0684Z" fill="url(#paint19_linear_270_27346)"/>
<defs>
<linearGradient id="paint0_linear_270_27346" x1="14.5002" y1="0.552735" x2="45.4227" y2="-9.3546" gradientUnits="userSpaceOnUse">
<stop stop-color="#A577F0"/>
<stop offset="1" stop-color="#6F4A9F"/>
</linearGradient>
<linearGradient id="paint1_linear_270_27346" x1="33.6761" y1="-2.969" x2="50.8706" y2="31.9997" gradientUnits="userSpaceOnUse">
<stop stop-color="#43BD74"/>
<stop offset="1" stop-color="#4BE789"/>
</linearGradient>
<linearGradient id="paint2_linear_270_27346" x1="121.817" y1="0.411133" x2="128.68" y2="35.765" gradientUnits="userSpaceOnUse">
<stop stop-color="#A577F0"/>
<stop offset="1" stop-color="#6F4A9F"/>
</linearGradient>
<linearGradient id="paint3_linear_270_27346" x1="121.817" y1="0.411133" x2="128.68" y2="35.765" gradientUnits="userSpaceOnUse">
<stop stop-color="#A577F0"/>
<stop offset="1" stop-color="#6F4A9F"/>
</linearGradient>
<linearGradient id="paint4_linear_270_27346" x1="121.817" y1="0.411133" x2="128.68" y2="35.765" gradientUnits="userSpaceOnUse">
<stop stop-color="#A577F0"/>
<stop offset="1" stop-color="#6F4A9F"/>
</linearGradient>
<linearGradient id="paint5_linear_270_27346" x1="121.817" y1="0.411133" x2="128.68" y2="35.765" gradientUnits="userSpaceOnUse">
<stop stop-color="#A577F0"/>
<stop offset="1" stop-color="#6F4A9F"/>
</linearGradient>
<linearGradient id="paint6_linear_270_27346" x1="121.817" y1="0.411133" x2="128.68" y2="35.765" gradientUnits="userSpaceOnUse">
<stop stop-color="#A577F0"/>
<stop offset="1" stop-color="#6F4A9F"/>
</linearGradient>
<linearGradient id="paint7_linear_270_27346" x1="121.817" y1="0.411133" x2="128.68" y2="35.765" gradientUnits="userSpaceOnUse">
<stop stop-color="#A577F0"/>
<stop offset="1" stop-color="#6F4A9F"/>
</linearGradient>
<linearGradient id="paint8_linear_270_27346" x1="121.817" y1="0.411133" x2="128.68" y2="35.765" gradientUnits="userSpaceOnUse">
<stop stop-color="#A577F0"/>
<stop offset="1" stop-color="#6F4A9F"/>
</linearGradient>
<linearGradient id="paint9_linear_270_27346" x1="121.817" y1="0.411133" x2="128.68" y2="35.765" gradientUnits="userSpaceOnUse">
<stop stop-color="#A577F0"/>
<stop offset="1" stop-color="#6F4A9F"/>
</linearGradient>
<linearGradient id="paint10_linear_270_27346" x1="121.817" y1="0.411133" x2="128.68" y2="35.765" gradientUnits="userSpaceOnUse">
<stop stop-color="#A577F0"/>
<stop offset="1" stop-color="#6F4A9F"/>
</linearGradient>
<linearGradient id="paint11_linear_270_27346" x1="121.817" y1="0.411133" x2="128.68" y2="35.765" gradientUnits="userSpaceOnUse">
<stop stop-color="#A577F0"/>
<stop offset="1" stop-color="#6F4A9F"/>
</linearGradient>
<linearGradient id="paint12_linear_270_27346" x1="121.817" y1="0.411133" x2="128.68" y2="35.765" gradientUnits="userSpaceOnUse">
<stop stop-color="#A577F0"/>
<stop offset="1" stop-color="#6F4A9F"/>
</linearGradient>
<linearGradient id="paint13_linear_270_27346" x1="97.1965" y1="13.7061" x2="112.303" y2="51.1035" gradientUnits="userSpaceOnUse">
<stop stop-color="#A577F0"/>
<stop offset="1" stop-color="#6F4A9F"/>
</linearGradient>
<linearGradient id="paint14_linear_270_27346" x1="97.1965" y1="13.7061" x2="112.303" y2="51.1035" gradientUnits="userSpaceOnUse">
<stop stop-color="#A577F0"/>
<stop offset="1" stop-color="#6F4A9F"/>
</linearGradient>
<linearGradient id="paint15_linear_270_27346" x1="97.1965" y1="13.7061" x2="112.303" y2="51.1035" gradientUnits="userSpaceOnUse">
<stop stop-color="#A577F0"/>
<stop offset="1" stop-color="#6F4A9F"/>
</linearGradient>
<linearGradient id="paint16_linear_270_27346" x1="97.1965" y1="13.7061" x2="112.303" y2="51.1035" gradientUnits="userSpaceOnUse">
<stop stop-color="#A577F0"/>
<stop offset="1" stop-color="#6F4A9F"/>
</linearGradient>
<linearGradient id="paint17_linear_270_27346" x1="97.1965" y1="13.7061" x2="112.303" y2="51.1035" gradientUnits="userSpaceOnUse">
<stop stop-color="#A577F0"/>
<stop offset="1" stop-color="#6F4A9F"/>
</linearGradient>
<linearGradient id="paint18_linear_270_27346" x1="97.1965" y1="13.7061" x2="112.303" y2="51.1035" gradientUnits="userSpaceOnUse">
<stop stop-color="#A577F0"/>
<stop offset="1" stop-color="#6F4A9F"/>
</linearGradient>
<linearGradient id="paint19_linear_270_27346" x1="135.688" y1="23.6212" x2="138.104" y2="27.7073" gradientUnits="userSpaceOnUse">
<stop stop-color="#43BD74"/>
<stop offset="1" stop-color="#4BE789"/>
</linearGradient>
</defs>
</svg>
